<svg width="80" height="24" viewBox="0 0 80 24" fill="none" xmlns="http://www.w3.org/2000/svg">
<path d="M56.3201 4.70399H52.0961C52.0001 4.70399 51.904 4.80001 51.904 4.89601V7.34399C51.904 7.43999 52.0001 7.53601 52.0961 7.53601H56.3201C56.4161 7.53601 56.5121 7.43999 56.5121 7.34399V4.89601C56.5601 4.80001 56.4641 4.70399 56.3201 4.70399ZM56.2721 8.352H48.1121C48.0161 8.352 47.8721 8.44799 47.8241 8.54399L46.7681 12.528L46.7201 12.72L45.4721 8.448C45.4241 8.352 45.3281 8.25601 45.1841 8.25601H42.0161C41.9201 8.25601 41.7761 8.352 41.7281 8.448L40.5281 12.432L40.4801 12.624L40.4321 12.528L39.9521 10.56L39.4241 8.592C39.3761 8.496 39.2801 8.4 39.1361 8.4H32.7521V4.94399C32.7521 4.84799 32.6081 4.704 32.4641 4.752L28.4321 6C28.2881 6.048 28.2401 6.096 28.2401 6.192V8.352H27.1841C27.0881 8.352 26.9921 8.44799 26.9921 8.54399V11.616C26.9921 11.712 27.0881 11.808 27.1841 11.808H28.2401V15.552C28.2401 18.192 29.6801 19.44 32.3201 19.44C33.4241 19.44 34.4801 19.2 35.2001 18.816V15.648C35.2001 15.504 35.0561 15.456 34.9601 15.456C34.5281 15.648 34.1921 15.696 33.8081 15.696C33.0881 15.696 32.7041 15.408 32.7041 14.592V11.856H35.0081C35.1041 11.856 35.2001 11.76 35.2001 11.664V9.072L38.2241 19.104C38.2721 19.2 38.3681 19.296 38.5121 19.296H41.8721C41.9681 19.296 42.1121 19.2 42.1601 19.104L43.6001 14.64L44.3201 16.944L44.9921 19.056C45.0401 19.152 45.1361 19.248 45.2801 19.248H48.6401C48.7361 19.248 48.8801 19.152 48.9281 19.056L52.0001 8.97601V19.056C52.0001 19.152 52.0961 19.248 52.1921 19.248H56.2721C56.3681 19.248 56.4641 19.152 56.4641 19.056V8.592C56.4641 8.448 56.3681 8.352 56.2721 8.352ZM61.6481 4.70399H57.5681C57.472 4.70399 57.3761 4.80001 57.3761 4.89601V19.056C57.3761 19.152 57.472 19.248 57.5681 19.248H61.6481C61.7441 19.248 61.8401 19.152 61.8401 19.056V4.89601C61.8401 4.80001 61.7441 4.70399 61.6481 4.70399ZM67.0721 4.70399H62.8481C62.7521 4.70399 62.6561 4.80001 62.6561 4.89601V7.34399C62.6561 7.43999 62.7521 7.53601 62.8481 7.53601H67.0721C67.1681 7.53601 67.2641 7.43999 67.2641 7.34399V4.89601C67.312 4.80001 67.2161 4.70399 67.0721 4.70399ZM67.0241 8.352H62.944C62.848 8.352 62.7521 8.44799 62.7521 8.54399V19.056C62.7521 19.152 62.848 19.248 62.944 19.248H67.0241C67.12 19.248 67.2161 19.152 67.2161 19.056V8.592C67.2161 8.448 67.12 8.352 67.0241 8.352ZM73.7921 8.112C70.1921 8.112 67.6481 10.752 67.6481 13.824V13.872C67.6481 16.944 70.1921 19.536 73.744 19.536C77.344 19.536 79.8881 16.896 79.8881 13.824V13.776C79.8881 10.704 77.3441 8.112 73.7921 8.112ZM75.5201 13.824C75.5201 14.88 74.8001 15.696 73.7921 15.696C72.784 15.696 72.0161 14.832 72.0161 13.776V13.728C72.0161 12.672 72.7361 11.856 73.744 11.856C74.7521 11.856 75.5201 12.72 75.5201 13.824ZM12.1121 0C5.48806 0 0.112061 5.376 0.112061 12C0.112061 18.624 5.48806 24 12.1121 24C18.7361 24 24.1121 18.624 24.1121 12C24.1121 5.376 18.7361 0 12.1121 0ZM12.1121 20.832C7.21606 20.832 3.28006 16.896 3.28006 12C3.28006 7.104 7.21606 3.168 12.1121 3.168C17.0081 3.168 20.9441 7.104 20.9441 12C20.9441 16.896 17.0081 20.832 12.1121 20.832Z" fill="white"/>
<path d="M15.0881 11.52C16.4666 11.52 17.5841 10.4025 17.5841 9.02399C17.5841 7.64549 16.4666 6.528 15.0881 6.528C13.7096 6.528 12.5921 7.64549 12.5921 9.02399C12.5921 10.4025 13.7096 11.52 15.0881 11.52Z" fill="white"/>
<path d="M15.0881 17.472C16.4666 17.472 17.5841 16.3545 17.5841 14.976C17.5841 13.5975 16.4666 12.48 15.0881 12.48C13.7096 12.48 12.5921 13.5975 12.5921 14.976C12.5921 16.3545 13.7096 17.472 15.0881 17.472Z" fill="white"/>
<path d="M9.13607 17.472C10.5146 17.472 11.6321 16.3545 11.6321 14.976C11.6321 13.5975 10.5146 12.48 9.13607 12.48C7.75756 12.48 6.64007 13.5975 6.64007 14.976C6.64007 16.3545 7.75756 17.472 9.13607 17.472Z" fill="white"/>
<path d="M9.13607 11.52C10.5146 11.52 11.6321 10.4025 11.6321 9.02399C11.6321 7.64549 10.5146 6.528 9.13607 6.528C7.75756 6.528 6.64007 7.64549 6.64007 9.02399C6.64007 10.4025 7.75756 11.52 9.13607 11.52Z" fill="white"/>
</svg>
