<svg width="20" height="17" viewBox="0 0 20 17" fill="none" xmlns="http://www.w3.org/2000/svg">
<path d="M6.2896 16.7921C13.8368 16.7921 17.9648 10.5393 17.9648 5.11686C17.9648 4.93926 17.9648 4.76246 17.9528 4.58646C18.7559 4.00559 19.4491 3.28636 20 2.46246C19.2512 2.79446 18.4567 3.01209 17.6432 3.10806C18.4998 2.5953 19.141 1.78871 19.4472 0.838456C18.6417 1.31646 17.7605 1.65331 16.8416 1.83446C16.2229 1.1766 15.4047 0.74099 14.5135 0.595026C13.6223 0.449062 12.7078 0.600885 11.9116 1.027C11.1154 1.45312 10.4819 2.12977 10.109 2.95225C9.73605 3.77473 9.64462 4.69718 9.8488 5.57686C8.21741 5.49502 6.62146 5.07105 5.16455 4.33246C3.70763 3.59387 2.4223 2.55717 1.392 1.28966C0.867274 2.19299 0.70656 3.26235 0.942583 4.28001C1.17861 5.29767 1.79362 6.18712 2.6624 6.76726C2.00936 6.74812 1.37054 6.57195 0.8 6.25366V6.30566C0.800259 7.25303 1.12821 8.17115 1.72823 8.9043C2.32824 9.63744 3.16338 10.1405 4.092 10.3281C3.4879 10.4928 2.85406 10.5169 2.2392 10.3985C2.50151 11.2137 3.01202 11.9267 3.69937 12.4376C4.38671 12.9485 5.21652 13.2319 6.0728 13.2481C5.22203 13.9168 4.24776 14.4112 3.20573 14.7031C2.16369 14.9949 1.07435 15.0784 0 14.9489C1.87653 16.153 4.05994 16.7918 6.2896 16.7889" fill="#272D37"/>
</svg>
