<svg width="48" height="48" viewBox="0 0 48 48" fill="none" xmlns="http://www.w3.org/2000/svg">
<rect width="48" height="48" rx="24" fill="#F5FAFF"/>
<path d="M12.0001 12C11.2637 12 10.6667 12.597 10.6667 13.3333C10.6667 14.0697 11.2637 14.6667 12.0001 14.6667H13.4994L15.1699 27.1953C15.4348 29.1825 17.13 30.6667 19.1348 30.6667H30.7281C32.5566 30.6667 34.1522 29.4268 34.6041 27.6551L36.444 20.4403C37.0889 17.9112 35.1781 15.4519 32.568 15.4519H16.2944L16.1427 14.3142C15.966 12.9894 14.8359 12 13.4994 12H12.0001Z" fill="#437EF7"/>
<path d="M14.6667 34.6667C14.6667 33.1939 15.8607 32 17.3334 32C18.8062 32 20.0001 33.1939 20.0001 34.6667C20.0001 36.1394 18.8062 37.3333 17.3334 37.3333C15.8607 37.3333 14.6667 36.1394 14.6667 34.6667Z" fill="#437EF7"/>
<path d="M32.0001 32C30.5273 32 29.3334 33.1939 29.3334 34.6667C29.3334 36.1394 30.5273 37.3333 32.0001 37.3333C33.4728 37.3333 34.6667 36.1394 34.6667 34.6667C34.6667 33.1939 33.4728 32 32.0001 32Z" fill="#437EF7"/>
</svg>
