<svg width="24" height="14" viewBox="0 0 24 14" fill="none" xmlns="http://www.w3.org/2000/svg">
<path d="M13.5423 6.99979C13.5423 10.6658 10.5179 13.6426 6.77116 13.6426C3.02445 13.6426 0 10.6658 0 6.99979C0 3.33375 3.02445 0.356934 6.77116 0.356934C10.5179 0.356934 13.5423 3.33375 13.5423 6.99979ZM20.9605 6.99979C20.9605 10.4459 19.4408 13.2467 17.5749 13.2467C15.7091 13.2467 14.1893 10.4459 14.1893 6.99979C14.1893 3.55372 15.7091 0.752863 17.5749 0.752863C19.4408 0.752863 20.9605 3.53905 20.9605 6.99979ZM24 6.99979C24 10.0939 23.4734 12.6015 22.8113 12.6015C22.1492 12.6015 21.6226 10.0939 21.6226 6.99979C21.6226 3.90566 22.1492 1.39808 22.8113 1.39808C23.4734 1.39808 24 3.90566 24 6.99979Z" fill="white"/>
</svg>
