<svg width="57" height="56" viewBox="0 0 57 56" fill="none" xmlns="http://www.w3.org/2000/svg">
<g filter="url(#filter0_d_3_18357)">
<rect x="2.5" y="1" width="52" height="52" rx="26" fill="#5DC264"/>
<path d="M30.1665 26.6663C30.1665 26.1996 30.1665 25.9663 30.2573 25.788C30.3372 25.6312 30.4647 25.5037 30.6215 25.4238C30.7998 25.333 31.0331 25.333 31.4998 25.333H35.4998C35.9665 25.333 36.1999 25.333 36.3782 25.4238C36.535 25.5037 36.6624 25.6312 36.7423 25.788C36.8332 25.9663 36.8332 26.1996 36.8332 26.6663V27.333C36.8332 27.7997 36.8332 28.0331 36.7423 28.2113C36.6624 28.3681 36.535 28.4956 36.3782 28.5755C36.1999 28.6663 35.9665 28.6663 35.4998 28.6663H31.4998C31.0331 28.6663 30.7998 28.6663 30.6215 28.5755C30.4647 28.4956 30.3372 28.3681 30.2573 28.2113C30.1665 28.0331 30.1665 27.7997 30.1665 27.333V26.6663Z" fill="white"/>
<path d="M32.4998 20.333H22.8332C21.8997 20.333 21.433 20.333 21.0765 20.5147C20.7629 20.6745 20.5079 20.9294 20.3482 21.243C20.1665 21.5995 20.1665 22.0663 20.1665 22.9997V30.9997C20.1665 31.9331 20.1665 32.3998 20.3482 32.7563C20.5079 33.0699 20.7629 33.3249 21.0765 33.4847C21.433 33.6663 21.8997 33.6663 22.8332 33.6663H32.4998C33.4333 33.6663 33.9 33.6663 34.2565 33.4847C34.5701 33.3249 34.8251 33.0699 34.9848 32.7563C35.1665 32.3998 35.1665 31.9331 35.1665 30.9997V30.333L31.4613 30.333C31.2628 30.3331 31.0257 30.3332 30.8168 30.3161C30.5748 30.2963 30.2281 30.2456 29.8649 30.0605C29.3945 29.8208 29.012 29.4384 28.7723 28.968C28.5873 28.6047 28.5365 28.2581 28.5167 28.0161C28.4997 27.8072 28.4998 27.5701 28.4998 27.3716V26.6278C28.4998 26.4292 28.4997 26.1921 28.5167 25.9833C28.5365 25.7413 28.5873 25.3946 28.7723 25.0314C29.012 24.561 29.3945 24.1785 29.8649 23.9388C30.2281 23.7537 30.5748 23.703 30.8168 23.6832C31.0257 23.6662 31.2628 23.6662 31.4613 23.6663L35.1665 23.6663V22.9997C35.1665 22.0663 35.1665 21.5995 34.9848 21.243C34.8251 20.9294 34.5701 20.6745 34.2565 20.5147C33.9 20.333 33.4333 20.333 32.4998 20.333Z" fill="white"/>
</g>
<defs>
<filter id="filter0_d_3_18357" x="0.5" y="0" width="56" height="56" filterUnits="userSpaceOnUse" color-interpolation-filters="sRGB">
<feFlood flood-opacity="0" result="BackgroundImageFix"/>
<feColorMatrix in="SourceAlpha" type="matrix" values="0 0 0 0 0 0 0 0 0 0 0 0 0 0 0 0 0 0 127 0" result="hardAlpha"/>
<feOffset dy="1"/>
<feGaussianBlur stdDeviation="1"/>
<feComposite in2="hardAlpha" operator="out"/>
<feColorMatrix type="matrix" values="0 0 0 0 0.0627451 0 0 0 0 0.0941176 0 0 0 0 0.156863 0 0 0 0.04 0"/>
<feBlend mode="normal" in2="BackgroundImageFix" result="effect1_dropShadow_3_18357"/>
<feBlend mode="normal" in="SourceGraphic" in2="effect1_dropShadow_3_18357" result="shape"/>
</filter>
</defs>
</svg>
