<svg width="57" height="56" viewBox="0 0 57 56" fill="none" xmlns="http://www.w3.org/2000/svg">
<g filter="url(#filter0_d_3_18352)">
<rect x="2.5" y="1" width="52" height="52" rx="26" fill="#F04438"/>
<path fill-rule="evenodd" clip-rule="evenodd" d="M34.3334 25.3066H35.6934C35.8045 25.3066 35.8601 25.3066 35.9073 25.2878C35.9491 25.2712 35.986 25.2442 36.0148 25.2093C36.0474 25.1698 36.065 25.1164 36.1001 25.0096L36.6038 23.4784C36.7706 22.9714 36.854 22.718 36.8291 22.4829C36.8071 22.2758 36.7269 22.0794 36.5978 21.9173C36.4514 21.7332 36.2156 21.6137 35.7439 21.3748L29.267 18.0934C28.9858 17.9509 28.8452 17.8797 28.6977 17.8516C28.5671 17.8268 28.4331 17.8268 28.3025 17.8516C28.155 17.8797 28.0144 17.9509 27.7332 18.0934L21.2563 21.3748C20.7846 21.6137 20.5487 21.7332 20.4023 21.9173C20.2733 22.0794 20.193 22.2758 20.1711 22.4829C20.1462 22.718 20.2296 22.9714 20.3963 23.4784L20.9001 25.0096C20.9352 25.1164 20.9528 25.1698 20.9854 25.2093C21.0141 25.2442 21.0511 25.2712 21.0928 25.2878C21.1401 25.3066 21.1957 25.3066 21.3068 25.3066H22.6668V31.8225H22.3367C21.8579 31.8225 21.6186 31.8225 21.4194 31.9072C21.2437 31.982 21.0909 32.1029 20.9767 32.2575C20.8472 32.4327 20.7892 32.668 20.673 33.1386L20.4587 34.0074C20.2771 34.7433 20.1863 35.1112 20.2747 35.401C20.3522 35.655 20.5189 35.8714 20.7433 36.0092C20.9993 36.1663 21.3737 36.1663 22.1223 36.1663H34.8779C35.6265 36.1663 36.0008 36.1663 36.2568 36.0092C36.4812 35.8714 36.648 35.655 36.7254 35.401C36.8138 35.1112 36.723 34.7433 36.5415 34.0074L36.3271 33.1386C36.211 32.668 36.153 32.4327 36.0235 32.2575C35.9093 32.1029 35.7564 31.982 35.5807 31.9072C35.3816 31.8225 35.1422 31.8225 34.6635 31.8225H34.3334V25.3066ZM32.6668 25.3066H29.3334V31.8225H32.6668V25.3066ZM27.6668 31.8225V25.3066H24.3334V31.8225H27.6668Z" fill="white"/>
</g>
<defs>
<filter id="filter0_d_3_18352" x="0.5" y="0" width="56" height="56" filterUnits="userSpaceOnUse" color-interpolation-filters="sRGB">
<feFlood flood-opacity="0" result="BackgroundImageFix"/>
<feColorMatrix in="SourceAlpha" type="matrix" values="0 0 0 0 0 0 0 0 0 0 0 0 0 0 0 0 0 0 127 0" result="hardAlpha"/>
<feOffset dy="1"/>
<feGaussianBlur stdDeviation="1"/>
<feComposite in2="hardAlpha" operator="out"/>
<feColorMatrix type="matrix" values="0 0 0 0 0.0627451 0 0 0 0 0.0941176 0 0 0 0 0.156863 0 0 0 0.04 0"/>
<feBlend mode="normal" in2="BackgroundImageFix" result="effect1_dropShadow_3_18352"/>
<feBlend mode="normal" in="SourceGraphic" in2="effect1_dropShadow_3_18352" result="shape"/>
</filter>
</defs>
</svg>
