<svg width="57" height="56" viewBox="0 0 57 56" fill="none" xmlns="http://www.w3.org/2000/svg">
<g filter="url(#filter0_d_3_18363)">
<rect x="2.5" y="1" width="52" height="52" rx="26" fill="#437EF7"/>
<path d="M20.1668 22.833H36.8334C36.8327 22.0094 36.8223 21.5777 36.6518 21.243C36.492 20.9294 36.237 20.6745 35.9234 20.5147C35.5669 20.333 35.1002 20.333 34.1667 20.333H22.8334C21.9 20.333 21.4333 20.333 21.0768 20.5147C20.7632 20.6745 20.5082 20.9294 20.3484 21.243C20.1779 21.5777 20.1674 22.0094 20.1668 22.833Z" fill="white"/>
<path fill-rule="evenodd" clip-rule="evenodd" d="M36.8334 24.4997H20.1667V30.9997C20.1667 31.9331 20.1667 32.3998 20.3484 32.7563C20.5082 33.0699 20.7632 33.3249 21.0768 33.4847C21.4333 33.6663 21.9 33.6663 22.8334 33.6663H34.1667C35.1002 33.6663 35.5669 33.6663 35.9234 33.4847C36.237 33.3249 36.492 33.0699 36.6518 32.7563C36.8334 32.3998 36.8334 31.9331 36.8334 30.9997V24.4997ZM22.6667 30.333C22.6667 29.8728 23.0398 29.4997 23.5001 29.4997H26.8334C27.2937 29.4997 27.6667 29.8728 27.6667 30.333C27.6667 30.7932 27.2937 31.1663 26.8334 31.1663H23.5001C23.0398 31.1663 22.6667 30.7932 22.6667 30.333ZM30.1667 29.4997C29.7065 29.4997 29.3334 29.8728 29.3334 30.333C29.3334 30.7932 29.7065 31.1663 30.1667 31.1663H33.5001C33.9603 31.1663 34.3334 30.7932 34.3334 30.333C34.3334 29.8728 33.9603 29.4997 33.5001 29.4997H30.1667Z" fill="white"/>
</g>
<defs>
<filter id="filter0_d_3_18363" x="0.5" y="0" width="56" height="56" filterUnits="userSpaceOnUse" color-interpolation-filters="sRGB">
<feFlood flood-opacity="0" result="BackgroundImageFix"/>
<feColorMatrix in="SourceAlpha" type="matrix" values="0 0 0 0 0 0 0 0 0 0 0 0 0 0 0 0 0 0 127 0" result="hardAlpha"/>
<feOffset dy="1"/>
<feGaussianBlur stdDeviation="1"/>
<feComposite in2="hardAlpha" operator="out"/>
<feColorMatrix type="matrix" values="0 0 0 0 0.0627451 0 0 0 0 0.0941176 0 0 0 0 0.156863 0 0 0 0.04 0"/>
<feBlend mode="normal" in2="BackgroundImageFix" result="effect1_dropShadow_3_18363"/>
<feBlend mode="normal" in="SourceGraphic" in2="effect1_dropShadow_3_18363" result="shape"/>
</filter>
</defs>
</svg>
