<svg width="49" height="48" viewBox="0 0 49 48" fill="none" xmlns="http://www.w3.org/2000/svg">
<rect x="0.333252" width="48" height="48" rx="24" fill="#F5FAFF"/>
<path d="M31.3904 22.2763L23.1874 30.4793C21.9321 28.2473 20.086 26.4013 17.854 25.146L28.1581 14.8419C28.6861 14.3139 28.9501 14.0499 29.2545 13.951C29.5223 13.864 29.8108 13.864 30.0786 13.951C30.383 14.0499 30.647 14.3139 31.1751 14.842L33.4914 17.1583C34.0194 17.6863 34.2834 17.9503 34.3824 18.2548C34.4694 18.5226 34.4694 18.811 34.3824 19.0788C34.2834 19.3833 34.0194 19.6473 33.4914 20.1753L33.2761 20.3906L35.4713 22.5859C36.2524 23.367 36.2524 24.6333 35.4713 25.4143L31.9427 28.9429C31.422 29.4636 30.5778 29.4636 30.0571 28.9429C29.5364 28.4222 29.5364 27.578 30.0571 27.0573L33.1143 24.0001L31.3904 22.2763Z" fill="#437EF7"/>
<path d="M16.0147 27.6223L15.0158 30.6191C14.5815 31.9219 14.3644 32.5733 14.5189 33.0064C14.6533 33.3834 14.95 33.6801 15.3269 33.8145C15.7601 33.9689 16.4115 33.7518 17.7143 33.3176L20.711 32.3186C20.862 32.2683 20.9813 32.2285 21.081 32.1933C19.997 30.067 18.2663 28.3364 16.1401 27.2524C16.1048 27.3521 16.065 27.4714 16.0147 27.6223Z" fill="#437EF7"/>
</svg>
