<svg width="57" height="56" viewBox="0 0 57 56" fill="none" xmlns="http://www.w3.org/2000/svg">
<g filter="url(#filter0_d_3_18368)">
<rect x="2.5" y="1" width="52" height="52" rx="26" fill="#FFAE43"/>
<path d="M27.6668 17.8711C25.7612 18.0428 24.0237 18.7977 22.6343 19.956L27.6668 24.9885V17.8711Z" fill="white"/>
<path d="M21.4558 21.1345C20.1307 22.7241 19.3335 24.7691 19.3335 27.0004C19.3335 29.2316 20.1307 31.2767 21.4558 32.8663L27.3217 27.0004L21.4558 21.1345Z" fill="white"/>
<path d="M22.6343 34.0448L28.8453 27.8337C29.1579 27.5212 29.3335 27.0972 29.3335 26.6552V17.8711C34.0056 18.2921 37.6668 22.2187 37.6668 27.0004C37.6668 32.063 33.5628 36.1671 28.5002 36.1671C26.2689 36.1671 24.2239 35.3699 22.6343 34.0448Z" fill="white"/>
</g>
<defs>
<filter id="filter0_d_3_18368" x="0.5" y="0" width="56" height="56" filterUnits="userSpaceOnUse" color-interpolation-filters="sRGB">
<feFlood flood-opacity="0" result="BackgroundImageFix"/>
<feColorMatrix in="SourceAlpha" type="matrix" values="0 0 0 0 0 0 0 0 0 0 0 0 0 0 0 0 0 0 127 0" result="hardAlpha"/>
<feOffset dy="1"/>
<feGaussianBlur stdDeviation="1"/>
<feComposite in2="hardAlpha" operator="out"/>
<feColorMatrix type="matrix" values="0 0 0 0 0.0627451 0 0 0 0 0.0941176 0 0 0 0 0.156863 0 0 0 0.04 0"/>
<feBlend mode="normal" in2="BackgroundImageFix" result="effect1_dropShadow_3_18368"/>
<feBlend mode="normal" in="SourceGraphic" in2="effect1_dropShadow_3_18368" result="shape"/>
</filter>
</defs>
</svg>
