<?xml version="1.0" standalone="no"?>
<!DOCTYPE svg PUBLIC "-//W3C//DTD SVG 20010904//EN"
 "http://www.w3.org/TR/2001/REC-SVG-20010904/DTD/svg10.dtd">
<svg version="1.0" xmlns="http://www.w3.org/2000/svg"
 width="512.000000pt" height="512.000000pt" viewBox="0 0 512.000000 512.000000"
 preserveAspectRatio="xMidYMid meet">

<g transform="translate(0.000000,512.000000) scale(0.100000,-0.100000)"
fill="#000000" stroke="none">
<path d="M1425 5048 c-18 -40 -43 -101 -54 -136 -48 -141 -53 -184 -58 -506
l-5 -309 -54 -101 c-93 -177 -133 -309 -155 -510 -37 -355 105 -744 381 -1038
181 -194 453 -372 700 -459 36 -12 67 -24 69 -25 2 -2 -17 -25 -42 -51 -63
-66 -79 -89 -121 -164 -60 -110 -116 -305 -116 -405 l0 -34 -137 0 c-221 1
-238 14 -354 281 -99 229 -113 251 -194 327 -134 126 -232 155 -510 150 -181
-3 -193 -4 -246 -29 -76 -36 -133 -90 -166 -157 -39 -80 -40 -191 -2 -273 58
-123 149 -180 300 -189 99 -6 138 -20 158 -59 6 -10 36 -88 67 -172 31 -85 74
-188 95 -230 79 -152 199 -267 354 -339 127 -59 185 -70 418 -77 l207 -6 0
-269 0 -268 985 0 985 0 0 653 c0 358 -5 693 -10 744 -20 186 -101 369 -221
498 -60 63 -60 65 -37 74 197 82 256 108 326 148 330 191 591 475 711 774 151
378 123 781 -80 1139 l-37 66 -5 309 c-6 369 -18 439 -113 644 l-34 74 -167
-6 c-190 -6 -254 -19 -380 -77 -105 -49 -163 -88 -240 -163 -52 -51 -65 -59
-90 -54 -15 2 -81 16 -145 30 -176 38 -326 50 -538 44 -185 -5 -285 -18 -457
-59 l-91 -21 -64 58 c-190 174 -382 245 -665 245 l-134 0 -34 -72z m425 -178
c101 -33 186 -89 303 -200 l108 -103 87 26 c232 71 390 91 657 84 226 -6 345
-24 537 -83 l89 -27 72 69 c124 121 173 160 249 196 100 48 159 62 258 63 l84
0 18 -48 c38 -103 48 -206 48 -517 l0 -298 36 -54 c125 -187 195 -445 180
-659 -40 -583 -520 -1051 -1244 -1215 l-123 -28 185 -185 c200 -201 239 -254
284 -386 l27 -80 3 -602 3 -603 -765 0 -766 0 0 185 c0 202 -6 234 -58 288
-56 59 -67 61 -327 68 -223 5 -245 7 -311 31 -124 44 -235 133 -297 239 -15
25 -59 130 -97 234 -75 197 -106 254 -164 299 -58 44 -105 59 -207 66 -103 8
-138 22 -157 66 -26 56 -7 110 48 139 22 12 67 15 194 15 182 0 227 -9 303
-62 61 -41 92 -93 168 -274 86 -205 98 -227 146 -279 53 -58 125 -103 200
-126 49 -15 92 -19 218 -19 166 0 205 7 258 46 53 40 74 85 89 197 18 128 46
222 92 312 31 58 68 100 221 251 l184 180 -139 34 c-183 43 -297 81 -419 139
-625 297 -932 866 -769 1429 31 105 70 192 127 280 l45 70 4 339 c4 312 6 344
27 417 35 126 28 120 135 113 51 -3 120 -15 156 -27z"/>
</g>
</svg>
