<?xml version="1.0" encoding="UTF-8"?>
<!DOCTYPE svg PUBLIC "-//W3C//DTD SVG 1.1//EN" "http://www.w3.org/Graphics/SVG/1.1/DTD/svg11.dtd">
<svg xmlns="http://www.w3.org/2000/svg" version="1.1" width="512px" height="512px" style="shape-rendering:geometricPrecision; text-rendering:geometricPrecision; image-rendering:optimizeQuality; fill-rule:evenodd; clip-rule:evenodd" xmlns:xlink="http://www.w3.org/1999/xlink">
<g><path style="opacity:0.988" fill="#fb490a" d="M 41.5,-0.5 C 184.167,-0.5 326.833,-0.5 469.5,-0.5C 477.26,3.34689 480.593,9.68022 479.5,18.5C 468.737,161.591 457.237,304.591 445,447.5C 443.167,450.667 440.667,453.167 437.5,455C 378.627,473.57 319.961,492.403 261.5,511.5C 257.5,511.5 253.5,511.5 249.5,511.5C 191.039,492.403 132.373,473.57 73.5,455C 66.3397,450.553 63.1731,444.053 64,435.5C 53.1114,296.504 42.2781,157.504 31.5,18.5C 30.407,9.68022 33.7403,3.34689 41.5,-0.5 Z M 113.5,93.5 C 208.167,93.5 302.833,93.5 397.5,93.5C 396.421,111.523 395.088,129.523 393.5,147.5C 321.5,147.5 249.5,147.5 177.5,147.5C 179.133,168.201 181.133,188.867 183.5,209.5C 251.833,209.5 320.167,209.5 388.5,209.5C 384.222,266.504 379.889,323.504 375.5,380.5C 335.512,392.829 295.512,405.162 255.5,417.5C 215.488,405.162 175.488,392.829 135.5,380.5C 133.332,350.814 130.998,321.148 128.5,291.5C 149.167,291.5 169.833,291.5 190.5,291.5C 190.5,306.167 190.5,320.833 190.5,335.5C 212.637,341.243 234.804,346.909 257,352.5C 279.196,346.909 301.363,341.243 323.5,335.5C 324.836,311.803 326.502,288.136 328.5,264.5C 261.167,264.5 193.833,264.5 126.5,264.5C 122.014,207.512 117.68,150.512 113.5,93.5 Z"/></g>
</svg>
