<?xml version="1.0" encoding="UTF-8"?>
<!DOCTYPE svg PUBLIC "-//W3C//DTD SVG 1.1//EN" "http://www.w3.org/Graphics/SVG/1.1/DTD/svg11.dtd">
<svg xmlns="http://www.w3.org/2000/svg" version="1.1" width="512px" height="512px" style="shape-rendering:geometricPrecision; text-rendering:geometricPrecision; image-rendering:optimizeQuality; fill-rule:evenodd; clip-rule:evenodd" xmlns:xlink="http://www.w3.org/1999/xlink">
<g><path style="opacity:0.996" fill="#fe7816" d="M 29.5,-0.5 C 104.833,-0.5 180.167,-0.5 255.5,-0.5C 255.5,24.8333 255.5,50.1667 255.5,75.5C 207.167,75.5 158.833,75.5 110.5,75.5C 115.165,140.479 119.498,205.479 123.5,270.5C 167.5,270.5 211.5,270.5 255.5,270.5C 255.5,303.5 255.5,336.5 255.5,369.5C 255.167,369.5 254.833,369.5 254.5,369.5C 232.895,362.298 211.228,355.298 189.5,348.5C 189.687,342.788 189.354,337.121 188.5,331.5C 168.5,331.5 148.5,331.5 128.5,331.5C 130.001,351.846 131.668,372.18 133.5,392.5C 173.721,406.24 214.055,419.574 254.5,432.5C 254.5,433.167 254.833,433.5 255.5,433.5C 255.5,459.5 255.5,485.5 255.5,511.5C 254.5,511.5 253.5,511.5 252.5,511.5C 188.845,489.726 124.845,468.726 60.5,448.5C 50.1193,298.836 39.7859,149.17 29.5,-0.5 Z"/></g>
<g><path style="opacity:1" fill="#fe4b00" d="M 255.5,-0.5 C 331.167,-0.5 406.833,-0.5 482.5,-0.5C 471.786,149.162 461.119,298.829 450.5,448.5C 386.551,468.928 322.884,489.928 259.5,511.5C 258.167,511.5 256.833,511.5 255.5,511.5C 255.5,485.5 255.5,459.5 255.5,433.5C 296.771,419.798 337.938,405.798 379,391.5C 383.314,331.172 387.481,270.838 391.5,210.5C 346.167,210.5 300.833,210.5 255.5,210.5C 255.5,185.5 255.5,160.5 255.5,135.5C 302.833,135.5 350.167,135.5 397.5,135.5C 398.55,115.468 399.883,95.4685 401.5,75.5C 352.833,75.5 304.167,75.5 255.5,75.5C 255.5,50.1667 255.5,24.8333 255.5,-0.5 Z"/></g>
<g><path style="opacity:1" fill="#ecebf0" d="M 255.5,75.5 C 255.5,95.5 255.5,115.5 255.5,135.5C 228.833,135.5 202.167,135.5 175.5,135.5C 177.099,160.486 178.432,185.486 179.5,210.5C 204.833,210.5 230.167,210.5 255.5,210.5C 255.5,230.5 255.5,250.5 255.5,270.5C 211.5,270.5 167.5,270.5 123.5,270.5C 119.498,205.479 115.165,140.479 110.5,75.5C 158.833,75.5 207.167,75.5 255.5,75.5 Z"/></g>
<g><path style="opacity:1" fill="#e2e1e6" d="M 255.5,75.5 C 304.167,75.5 352.833,75.5 401.5,75.5C 399.883,95.4685 398.55,115.468 397.5,135.5C 350.167,135.5 302.833,135.5 255.5,135.5C 255.5,115.5 255.5,95.5 255.5,75.5 Z"/></g>
<g><path style="opacity:1" fill="#fe7816" d="M 255.5,135.5 C 255.5,160.5 255.5,185.5 255.5,210.5C 230.167,210.5 204.833,210.5 179.5,210.5C 178.432,185.486 177.099,160.486 175.5,135.5C 202.167,135.5 228.833,135.5 255.5,135.5 Z"/></g>
<g><path style="opacity:1" fill="#e2e1e6" d="M 255.5,210.5 C 300.833,210.5 346.167,210.5 391.5,210.5C 387.481,270.838 383.314,331.172 379,391.5C 337.938,405.798 296.771,419.798 255.5,433.5C 254.833,433.5 254.5,433.167 254.5,432.5C 255.826,411.598 255.826,390.598 254.5,369.5C 254.833,369.5 255.167,369.5 255.5,369.5C 277.384,362.094 299.384,355.094 321.5,348.5C 323.25,322.506 324.916,296.506 326.5,270.5C 302.833,270.5 279.167,270.5 255.5,270.5C 255.5,250.5 255.5,230.5 255.5,210.5 Z"/></g>
<g><path style="opacity:1" fill="#fe4b00" d="M 255.5,270.5 C 279.167,270.5 302.833,270.5 326.5,270.5C 324.916,296.506 323.25,322.506 321.5,348.5C 299.384,355.094 277.384,362.094 255.5,369.5C 255.5,336.5 255.5,303.5 255.5,270.5 Z"/></g>
<g><path style="opacity:1" fill="#ecebef" d="M 254.5,369.5 C 255.826,390.598 255.826,411.598 254.5,432.5C 214.055,419.574 173.721,406.24 133.5,392.5C 131.668,372.18 130.001,351.846 128.5,331.5C 148.5,331.5 168.5,331.5 188.5,331.5C 189.354,337.121 189.687,342.788 189.5,348.5C 211.228,355.298 232.895,362.298 254.5,369.5 Z"/></g>
</svg>
