<?xml version="1.0" encoding="UTF-8"?>
<!DOCTYPE svg PUBLIC "-//W3C//DTD SVG 1.1//EN" "http://www.w3.org/Graphics/SVG/1.1/DTD/svg11.dtd">
<svg xmlns="http://www.w3.org/2000/svg" version="1.1" width="512px" height="512px" style="shape-rendering:geometricPrecision; text-rendering:geometricPrecision; image-rendering:optimizeQuality; fill-rule:evenodd; clip-rule:evenodd" xmlns:xlink="http://www.w3.org/1999/xlink">
<g><path style="opacity:0.996" fill="#1572b6" d="M 28.5,-0.5 C 179.833,-0.5 331.167,-0.5 482.5,-0.5C 469.331,152.522 455.831,305.522 442,458.5C 441.348,460.723 439.848,461.89 437.5,462C 378.301,478.239 319.301,494.739 260.5,511.5C 256.833,511.5 253.167,511.5 249.5,511.5C 190.373,494.548 131.04,477.881 71.5,461.5C 70.3527,461.182 69.5194,460.516 69,459.5C 55.2288,306.183 41.7288,152.85 28.5,-0.5 Z"/></g>
<g><path style="opacity:1" fill="#35a8db" d="M 255.5,419.5 C 295.167,408.167 334.833,396.833 374.5,385.5C 379.358,326.492 384.358,267.492 389.5,208.5C 345.833,207.833 302.167,207.167 258.5,206.5C 303.479,187.346 348.479,168.179 393.5,149C 394.126,148.25 394.626,147.416 395,146.5C 396.944,128.169 398.778,109.836 400.5,91.5C 352.167,91.5 303.833,91.5 255.5,91.5C 255.5,91.1667 255.5,90.8333 255.5,90.5C 255.5,70.8333 255.5,51.1667 255.5,31.5C 319.5,31.5 383.5,31.5 447.5,31.5C 435.409,166.144 423.409,300.811 411.5,435.5C 359.417,449.521 307.417,463.854 255.5,478.5C 255.5,458.833 255.5,439.167 255.5,419.5 Z"/></g>
<g><path style="opacity:1" fill="#4e92c3" d="M 255.5,90.5 C 255.5,90.8333 255.5,91.1667 255.5,91.5C 206.5,91.5 157.5,91.5 108.5,91.5C 108.5,92.8333 108.5,94.1667 108.5,95.5C 107.549,94.0813 107.216,92.4147 107.5,90.5C 156.833,90.5 206.167,90.5 255.5,90.5 Z"/></g>
<g><path style="opacity:1" fill="#e8e8e7" d="M 255.5,91.5 C 255.5,110.5 255.5,129.5 255.5,148.5C 208.5,148.5 161.5,148.5 114.5,148.5C 112.747,130.806 110.747,113.139 108.5,95.5C 108.5,94.1667 108.5,92.8333 108.5,91.5C 157.5,91.5 206.5,91.5 255.5,91.5 Z"/></g>
<g><path style="opacity:1" fill="#fefefd" d="M 255.5,91.5 C 303.833,91.5 352.167,91.5 400.5,91.5C 398.778,109.836 396.944,128.169 395,146.5C 394.626,147.416 394.126,148.25 393.5,149C 348.479,168.179 303.479,187.346 258.5,206.5C 257.609,207.11 256.609,207.443 255.5,207.5C 255.5,188.833 255.5,170.167 255.5,151.5C 263.146,149.323 263.146,148.323 255.5,148.5C 255.5,129.5 255.5,110.5 255.5,91.5 Z"/></g>
<g><path style="opacity:1" fill="#e8e8e7" d="M 255.5,151.5 C 255.5,170.167 255.5,188.833 255.5,207.5C 254.167,207.833 254.167,208.167 255.5,208.5C 255.5,226.833 255.5,245.167 255.5,263.5C 211.828,263.833 168.162,263.5 124.5,262.5C 122.12,244.23 121.12,225.896 121.5,207.5C 166.192,188.818 210.859,170.152 255.5,151.5 Z"/></g>
<g><path style="opacity:1" fill="#bfe0ee" d="M 258.5,206.5 C 302.167,207.167 345.833,207.833 389.5,208.5C 344.833,208.5 300.167,208.5 255.5,208.5C 254.167,208.167 254.167,207.833 255.5,207.5C 256.609,207.443 257.609,207.11 258.5,206.5 Z"/></g>
<g><path style="opacity:1" fill="#fefefd" d="M 255.5,208.5 C 300.167,208.5 344.833,208.5 389.5,208.5C 384.358,267.492 379.358,326.492 374.5,385.5C 334.833,396.833 295.167,408.167 255.5,419.5C 255.5,398.833 255.5,378.167 255.5,357.5C 255.5,357.167 255.5,356.833 255.5,356.5C 277.124,350.677 298.79,345.011 320.5,339.5C 322.224,314.523 323.557,289.523 324.5,264.5C 301.5,264.5 278.5,264.5 255.5,264.5C 255.5,264.167 255.5,263.833 255.5,263.5C 255.5,245.167 255.5,226.833 255.5,208.5 Z"/></g>
<g><path style="opacity:1" fill="#35a8db" d="M 255.5,264.5 C 278.5,264.5 301.5,264.5 324.5,264.5C 323.557,289.523 322.224,314.523 320.5,339.5C 298.79,345.011 277.124,350.677 255.5,356.5C 255.5,325.833 255.5,295.167 255.5,264.5 Z"/></g>
<g><path style="opacity:1" fill="#e7e8e7" d="M 255.5,357.5 C 255.5,378.167 255.5,398.833 255.5,419.5C 215.398,408.142 175.398,396.475 135.5,384.5C 133.553,354.801 131.219,325.134 128.5,295.5C 148.167,295.5 167.833,295.5 187.5,295.5C 188.536,311.119 190.203,326.619 192.5,342C 213.615,346.959 234.615,352.125 255.5,357.5 Z"/></g>
</svg>
